<?xml version="1.0" standalone="yes"?>

<svg version="1.1" viewBox="0.0 0.0 960.0 720.0" fill="none" stroke="none" stroke-linecap="square" stroke-miterlimit="10" xmlns="http://www.w3.org/2000/svg" xmlns:xlink="http://www.w3.org/1999/xlink"><clipPath id="p.0"><path d="m0 0l960.0 0l0 720.0l-960.0 0l0 -720.0z" clip-rule="nonzero"></path></clipPath><g clip-path="url(#p.0)"><path fill="#000000" fill-opacity="0.0" d="m0 0l960.0 0l0 720.0l-960.0 0z" fill-rule="nonzero"></path><path fill="#000000" fill-opacity="0.0" d="m39.92126 32.425198l880.1575 0l0 545.9559l-109.19379 109.19379l-770.9637 0z" fill-rule="nonzero"></path><path fill="#000000" fill-opacity="0.0" d="m810.88495 687.5748l21.838745 -87.35504l87.35504 -21.838745z" fill-rule="nonzero"></path><path fill="#000000" fill-opacity="0.0" d="m810.88495 687.5748l21.838745 -87.35504l87.35504 -21.838745l-109.19379 109.19379l-770.9637 0l0 -655.14966l880.1575 0l0 545.9559" fill-rule="nonzero"></path><path fill="#000000" fill-opacity="0.2" d="m810.88495 687.5748l21.838745 -87.35504l87.35504 -21.838745z" fill-rule="nonzero"></path><path stroke="#ffffff" stroke-width="3.0" stroke-linejoin="round" stroke-linecap="butt" d="m810.88495 687.5748l21.838745 -87.35504l87.35504 -21.838745l-109.19379 109.19379l-770.9637 0l0 -655.14966l880.1575 0l0 545.9559" fill-rule="nonzero"></path></g></svg>

